<mxfile host="Electron" agent="Mozilla/5.0 (X11; Linux x86_64) AppleWebKit/537.36 (KHTML, like Gecko) draw.io/26.2.2 Chrome/134.0.6998.178 Electron/35.1.2 Safari/537.36" version="26.2.2">
  <diagram name="PÃ¡gina-1" id="uRsQcEOJutSbc4ijZAs3">
    <mxGraphModel dx="1362" dy="843" grid="1" gridSize="10" guides="1" tooltips="1" connect="1" arrows="1" fold="1" page="1" pageScale="1" pageWidth="827" pageHeight="1169" math="0" shadow="0">
      <root>
        <mxCell id="0" />
        <mxCell id="1" parent="0" />
        <mxCell id="Yl3Ig0AkrDsoVRoP_4zn-6" style="edgeStyle=orthogonalEdgeStyle;rounded=0;orthogonalLoop=1;jettySize=auto;html=1;exitX=0.5;exitY=1;exitDx=0;exitDy=0;" edge="1" parent="1" source="Yl3Ig0AkrDsoVRoP_4zn-1" target="Yl3Ig0AkrDsoVRoP_4zn-2">
          <mxGeometry relative="1" as="geometry" />
        </mxCell>
        <mxCell id="Yl3Ig0AkrDsoVRoP_4zn-1" value="Inicio." style="ellipse;whiteSpace=wrap;html=1;" vertex="1" parent="1">
          <mxGeometry x="360" y="60" width="120" height="80" as="geometry" />
        </mxCell>
        <mxCell id="Yl3Ig0AkrDsoVRoP_4zn-7" style="edgeStyle=orthogonalEdgeStyle;rounded=0;orthogonalLoop=1;jettySize=auto;html=1;exitX=0.5;exitY=1;exitDx=0;exitDy=0;entryX=0.5;entryY=0;entryDx=0;entryDy=0;" edge="1" parent="1" source="Yl3Ig0AkrDsoVRoP_4zn-2" target="Yl3Ig0AkrDsoVRoP_4zn-3">
          <mxGeometry relative="1" as="geometry" />
        </mxCell>
        <mxCell id="Yl3Ig0AkrDsoVRoP_4zn-2" value="Solicitar edad." style="shape=parallelogram;perimeter=parallelogramPerimeter;whiteSpace=wrap;html=1;fixedSize=1;" vertex="1" parent="1">
          <mxGeometry x="360" y="200" width="120" height="60" as="geometry" />
        </mxCell>
        <mxCell id="Yl3Ig0AkrDsoVRoP_4zn-8" style="edgeStyle=orthogonalEdgeStyle;rounded=0;orthogonalLoop=1;jettySize=auto;html=1;exitX=0;exitY=0.5;exitDx=0;exitDy=0;entryX=0.5;entryY=0;entryDx=0;entryDy=0;" edge="1" parent="1" source="Yl3Ig0AkrDsoVRoP_4zn-3" target="Yl3Ig0AkrDsoVRoP_4zn-4">
          <mxGeometry relative="1" as="geometry" />
        </mxCell>
        <mxCell id="Yl3Ig0AkrDsoVRoP_4zn-3" value="edad &amp;lt; 18" style="rhombus;whiteSpace=wrap;html=1;" vertex="1" parent="1">
          <mxGeometry x="370" y="320" width="100" height="100" as="geometry" />
        </mxCell>
        <mxCell id="Yl3Ig0AkrDsoVRoP_4zn-4" value="&lt;font style=&quot;font-size: 13px;&quot;&gt;Eres menor de edad.&lt;/font&gt;" style="shape=parallelogram;perimeter=parallelogramPerimeter;whiteSpace=wrap;html=1;fixedSize=1;" vertex="1" parent="1">
          <mxGeometry x="190" y="440" width="120" height="60" as="geometry" />
        </mxCell>
        <mxCell id="Yl3Ig0AkrDsoVRoP_4zn-12" style="edgeStyle=orthogonalEdgeStyle;rounded=0;orthogonalLoop=1;jettySize=auto;html=1;exitX=0.5;exitY=1;exitDx=0;exitDy=0;entryX=1;entryY=0.5;entryDx=0;entryDy=0;" edge="1" parent="1" source="Yl3Ig0AkrDsoVRoP_4zn-5" target="Yl3Ig0AkrDsoVRoP_4zn-10">
          <mxGeometry relative="1" as="geometry" />
        </mxCell>
        <mxCell id="Yl3Ig0AkrDsoVRoP_4zn-5" value="&lt;font style=&quot;font-size: 13px;&quot;&gt;Eres mayor de edad.&lt;/font&gt;" style="shape=parallelogram;perimeter=parallelogramPerimeter;whiteSpace=wrap;html=1;fixedSize=1;align=center;" vertex="1" parent="1">
          <mxGeometry x="510" y="440" width="120" height="60" as="geometry" />
        </mxCell>
        <mxCell id="Yl3Ig0AkrDsoVRoP_4zn-9" style="edgeStyle=orthogonalEdgeStyle;rounded=0;orthogonalLoop=1;jettySize=auto;html=1;exitX=1;exitY=0.5;exitDx=0;exitDy=0;entryX=0.667;entryY=0;entryDx=0;entryDy=0;entryPerimeter=0;" edge="1" parent="1" source="Yl3Ig0AkrDsoVRoP_4zn-3" target="Yl3Ig0AkrDsoVRoP_4zn-5">
          <mxGeometry relative="1" as="geometry" />
        </mxCell>
        <mxCell id="Yl3Ig0AkrDsoVRoP_4zn-10" value="Fin." style="ellipse;whiteSpace=wrap;html=1;" vertex="1" parent="1">
          <mxGeometry x="360" y="570" width="120" height="80" as="geometry" />
        </mxCell>
        <mxCell id="Yl3Ig0AkrDsoVRoP_4zn-11" style="edgeStyle=orthogonalEdgeStyle;rounded=0;orthogonalLoop=1;jettySize=auto;html=1;exitX=0.5;exitY=1;exitDx=0;exitDy=0;entryX=0;entryY=0.625;entryDx=0;entryDy=0;entryPerimeter=0;" edge="1" parent="1" source="Yl3Ig0AkrDsoVRoP_4zn-4" target="Yl3Ig0AkrDsoVRoP_4zn-10">
          <mxGeometry relative="1" as="geometry" />
        </mxCell>
      </root>
    </mxGraphModel>
  </diagram>
</mxfile>
